<svg xmlns="http://www.w3.org/2000/svg" viewBox="0 0 45.16 45.16"><path d="M-376.885 185.752c-2.141-.393-3.074-.673-4.465-1.341-1.525-.733-2.692-1.572-3.995-2.872-1.643-1.64-2.602-3.118-3.43-5.284-.633-1.663-.791-2.661-.79-5.013 0-1.682.036-2.244.185-2.884.102-.438.19-.886.198-.995.007-.11.04-.221.074-.249.033-.027.14-.296.237-.596.172-.532 1.214-2.785 1.334-2.885.033-.027.226-.295.43-.596.38-.56.496-.706 1.394-1.742.86-.994 2.522-2.246 3.98-3l.87-.45v-9.678l-.485-.222c-.596-.274-1.043-.715-1.385-1.368-.224-.427-.261-.625-.265-1.393-.005-1.09.22-1.616.996-2.323.834-.761 1.082-.81 4.078-.81h2.59l-.003.522c-.002.287.029.643.07.791l.074.27-2.63.029c-2.475.027-2.645.041-2.903.234-.71.53-.89 1.207-.517 1.933.274.534.764.812 1.544.877l.526.043v12.18l-.891.37a13.233 13.233 0 0 0-4.48 3.114c-2.26 2.415-3.479 5.513-3.48 8.84 0 .608.026 1.24.059 1.403.059.294.067.297.87.355.798.058 1.925.368 2.836.78.486.22.978.449 3.248 1.503 1.435.666 2.13.893 2.292.793.053-.033.091.304.091.799v.856l-.372-.068c-.86-.156-1.485-.467-3.306-1.46l-1.193-.647-1.393-.751c-.99-.534-1.66-.799-2.333-.921l-.523-.095.065.406c.09.563.507 1.78.876 2.554 1.096 2.304 3.06 4.445 5.233 5.706 1.131.657 1.24.684 1.888.465.311-.104 1.009-.28 1.55-.391.541-.11.746-.308 1.066-.33l5.133.271c.26.035.892.173 1.406.306l.934.241.657-.36c1.032-.565 1.878-1.2 2.828-2.122.845-.82 1.957-2.157 1.957-2.353 0-.051-.526-.196-1.169-.32-.643-.125-1.683-.336-2.312-.47-1.412-.3-2.485-.315-3.488-.049-.407.109-.773.198-.814.2-.04 0-.074-.28-.074-.625v-.626l.698-.12c1.676-.287 2.65-.12 5.894 1.006l1.57.545.347-.688c1.08-2.144 1.564-4.645 1.338-6.906-.23-2.298-.902-4.196-2.179-6.16-.579-.89-2.54-2.856-3.441-3.451-.867-.572-2.047-1.18-2.156-1.113-.045.028-.082.008-.082-.044s-.112-.123-.249-.157l-.248-.062v-12.391l.497-.127c.727-.187 1.193-.752 1.193-1.445 0-.67-.272-1.106-.844-1.36-.41-.18-.435-.213-.346-.447.053-.138.096-.499.096-.8v-.549l.323.07c1.606.347 2.686 2.02 2.364 3.66-.15.764-.665 1.557-1.249 1.928l-.436.276-.002 5.022-.002 5.023.784.417c1.162.618 2.41 1.55 3.429 2.557.498.493.931.89.963.88.032-.007.059.04.06.104 0 .104.87 1.428 1.025 1.561.195.168 1.213 2.4 1.474 3.233.525 1.675.657 2.587.655 4.525-.002 1.847-.108 2.597-.604 4.276-.219.74-1.358 3.224-1.51 3.382-.009.008-.71.986-.71 1.04 0 .087-.876 1.037-1.656 1.794-1.885 1.834-4.42 3.183-7.096 3.778-.725.161-4.181.299-4.774.19z" style="fill:#e76227;fill-opacity:1;stroke-width:.282222" transform="translate(397.63 -140.63)"/><path d="M-365.223 174.575c-.786-.26-1.208-.85-1.211-1.696-.004-1.03.71-1.736 1.756-1.738.517 0 .811.11 1.216.459.393.338.554.803.506 1.469-.04.566-.272.974-.738 1.302-.24.169-.38.208-.82.233-.292.016-.61.003-.71-.03z" style="fill:#e76227;fill-opacity:1;stroke-width:.282222" transform="translate(397.63 -140.63)"/><path d="M-372.434 182.558v-6.816l3.746.092c.945.024 1.725-.454 1.725-1.019v-7.72c0-.58-.77-1.05-1.697-1.05-.93 0-1.67.47-1.67 1.05v6.701h-2.048v-12.485c0-1.035-1.204-1.852-2.699-1.852-1.492 0-2.699.817-2.699 1.852v7.412h-1.722v-2.872c0-.394-.508-.71-1.14-.71-.63 0-1.141.316-1.141.71v3.613c0 .407.58.741 1.28.741h2.723v12.353" style="fill:#e76227;fill-opacity:1;fill-rule:nonzero;stroke:none;stroke-width:.282222" transform="translate(397.63 -140.63)"/><path d="M-375.448 151.125c-.93-.352-1.42-1.114-1.42-2.206 0-1.383.909-2.286 2.288-2.275 1.061.01 1.655.349 2.128 1.217.257.471.278.581.22 1.149-.108 1.047-.442 1.607-1.205 2.015-.476.255-1.472.305-2.011.1zM-373.492 144.004c-.763-.403-1.03-1.092-.836-2.156.08-.442.535-.943 1.023-1.128.326-.125 1.047-.118 1.393.012 1.334.503 1.512 2.51.286 3.228-.531.312-1.324.33-1.866.044z" style="fill:#e76227;fill-opacity:1;stroke-width:.282222" transform="translate(397.63 -140.63)"/></svg>