<?xml version="1.0" encoding="UTF-8" standalone="no"?>
<svg
   xmlns:dc="http://purl.org/dc/elements/1.1/"
   xmlns:cc="http://creativecommons.org/ns#"
   xmlns:rdf="http://www.w3.org/1999/02/22-rdf-syntax-ns#"
   xmlns:svg="http://www.w3.org/2000/svg"
   xmlns="http://www.w3.org/2000/svg"
   xmlns:sodipodi="http://sodipodi.sourceforge.net/DTD/sodipodi-0.dtd"
   xmlns:inkscape="http://www.inkscape.org/namespaces/inkscape"
   width="214.75458mm"
   height="33.111813mm"
   viewBox="0 0 214.75458 33.111813"
   version="1.1"
   id="svg2066"
   inkscape:version="1.0.2 (e86c870879, 2021-01-15)"
   sodipodi:docname="logo-with-orange-text.svg">
  <defs
     id="defs2060" />
  <sodipodi:namedview
     id="base"
     pagecolor="#ffffff"
     bordercolor="#666666"
     borderopacity="1.0"
     inkscape:pageopacity="0.0"
     inkscape:pageshadow="2"
     inkscape:zoom="1"
     inkscape:cx="353.82072"
     inkscape:cy="-113.54093"
     inkscape:document-units="mm"
     inkscape:current-layer="layer1"
     inkscape:document-rotation="0"
     showgrid="false"
     fit-margin-top="0"
     fit-margin-left="0"
     fit-margin-right="0"
     fit-margin-bottom="0"
     inkscape:window-width="1607"
     inkscape:window-height="1238"
     inkscape:window-x="26"
     inkscape:window-y="23"
     inkscape:window-maximized="0" />
  <metadata
     id="metadata2063">
    <rdf:RDF>
      <cc:Work
         rdf:about="">
        <dc:format>image/svg+xml</dc:format>
        <dc:type
           rdf:resource="http://purl.org/dc/dcmitype/StillImage" />
        <dc:title></dc:title>
      </cc:Work>
    </rdf:RDF>
  </metadata>
  <g
     inkscape:label="Layer 1"
     inkscape:groupmode="layer"
     id="layer1"
     transform="translate(-357.53343,-71.890525)">
    <g
       transform="matrix(0.26458333,0,0,0.26458333,395.78873,-357.15045)"
       style="font-style:normal;font-variant:normal;font-weight:normal;font-stretch:normal;font-size:40px;line-height:125%;font-family:OpTic;-inkscape-font-specification:OpTic;letter-spacing:0px;word-spacing:0px;fill:#e64f1f;fill-opacity:1;stroke:#000000;stroke-width:1;stroke-linecap:butt;stroke-linejoin:bevel;stroke-miterlimit:4;stroke-dasharray:none;stroke-dashoffset:0;stroke-opacity:1"
       id="text21126-9-1-4-7"
       inkscape:export-filename="/home/outskirts/clients/outskirtslabs/branding/raster/logo-flask-color-35.png"
       inkscape:export-xdpi="25.1703"
       inkscape:export-ydpi="25.1703">
      <path
         inkscape:connector-curvature="0"
         d="m 0.99014612,1710.3281 q 0,9.504 -6.48000002,15.696 -6.3360001,6.192 -15.8400001,6.192 h -16.56 q -9.504,0 -15.984,-6.192 -6.336,-6.192 -6.336,-15.696 v -25.632 q 0,-9.504 6.336,-15.696 6.48,-6.192 15.984,-6.192 h 16.56 q 9.504,0 15.8400001,6.192 6.48000002,6.192 6.48000002,15.696 z m -11.08800012,0 v -25.632 q 0,-4.608 -3.312,-7.776 -3.312,-3.168 -7.92,-3.168 h -16.56 q -4.608,0 -7.92,3.168 -3.168,3.168 -3.168,7.776 v 25.632 q 0,4.608 3.168,7.776 3.312,3.168 7.92,3.168 h 16.56 q 4.608,0 7.92,-3.168 3.312,-3.168 3.312,-7.776 z"
         style="font-style:normal;font-variant:normal;font-weight:bold;font-stretch:normal;font-size:144px;font-family:'Hall Fetica';-inkscape-font-specification:'Hall Fetica Bold';letter-spacing:-11px;fill:#e64f1f;fill-opacity:1;stroke:#000000;stroke-width:1;stroke-linecap:butt;stroke-linejoin:bevel;stroke-miterlimit:4;stroke-dasharray:none;stroke-dashoffset:0;stroke-opacity:1"
         id="path7681-0-4-4" />
      <path
         inkscape:connector-curvature="0"
         d="m 65.221146,1732.6481 h -38.736 q -9.504,0 -15.984,-6.192 -6.3359999,-6.192 -6.3359999,-15.696 v -47.952 H 15.253146 v 47.952 q 0,4.608 3.312,7.776 3.312,3.168 7.92,3.168 h 27.648 v -58.896 h 11.088 z"
         style="font-style:normal;font-variant:normal;font-weight:bold;font-stretch:normal;font-size:144px;font-family:'Hall Fetica';-inkscape-font-specification:'Hall Fetica Bold';letter-spacing:-11px;fill:#e64f1f;fill-opacity:1;stroke:#000000;stroke-width:1;stroke-linecap:butt;stroke-linejoin:bevel;stroke-miterlimit:4;stroke-dasharray:none;stroke-dashoffset:0;stroke-opacity:1"
         id="path7683-6-2-1" />
      <path
         inkscape:connector-curvature="0"
         d="M 115.34015,1732.6481 H 97.772146 q -9.504,0 -15.984,-6.192 -6.336,-6.192 -6.336,-15.696 v -37.584 h -6.912 v -11.232 h 6.912 v -25.056 h 11.232 v 25.056 h 23.328004 v 11.232 H 86.684146 v 37.584 q 0,4.608 3.168,7.776 3.312,3.168 7.92,3.168 h 17.568004 z"
         style="font-style:normal;font-variant:normal;font-weight:bold;font-stretch:normal;font-size:144px;font-family:'Hall Fetica';-inkscape-font-specification:'Hall Fetica Bold';letter-spacing:-11px;fill:#e64f1f;fill-opacity:1;stroke:#000000;stroke-width:1;stroke-linecap:butt;stroke-linejoin:bevel;stroke-miterlimit:4;stroke-dasharray:none;stroke-dashoffset:0;stroke-opacity:1"
         id="path7685-5-3-5" />
      <path
         d="m 174.99015,1714.0721 c 0,6.048 -2.29,10.368 -6.802,13.824 -4.032,3.168 -9.168,4.752 -15.408,4.752 h -37.60919 v -10.944 h 37.60919 c 7.392,0 11.122,-2.256 11.122,-7.632 v -2.592 c 0,-5.376 -3.696,-8.064 -11.088,-8.064 h -16.848 c -6.24,0 -11.376,-1.584 -15.408,-4.752 -4.512,-3.456 -6.768,-8.208 -6.768,-14.256 v -2.592 c 0,-6.048 2.256,-10.8 6.768,-14.256 4.032,-3.168 9.168,-4.752 15.408,-4.752 h 37.584 v 10.944 h -37.584 c -7.392,0 -11.088,2.688 -11.088,8.064 v 2.592 c 0,5.376 3.696,8.064 11.088,8.064 h 16.848 c 6.24,0 11.376,1.584 15.408,4.752 4.512,3.456 6.768,8.208 6.768,14.256 z"
         style="font-style:normal;font-variant:normal;font-weight:bold;font-stretch:normal;font-size:144px;font-family:'Hall Fetica';-inkscape-font-specification:'Hall Fetica Bold';letter-spacing:-11px;fill:#e64f1f;fill-opacity:1;stroke:#000000;stroke-width:1;stroke-linecap:butt;stroke-linejoin:bevel;stroke-miterlimit:4;stroke-dasharray:none;stroke-dashoffset:0;stroke-opacity:1"
         id="path7687-9-8-0"
         inkscape:connector-curvature="0"
         sodipodi:nodetypes="scsccssssscsscsccssssscss" />
      <path
         inkscape:connector-curvature="0"
         d="m 241.66915,1662.3761 -22.464,28.08 q 8.496,-0.144 14.256,6.48 5.76,6.48 5.76,15.12 v 20.592 h -11.088 v -20.592 q 0,-4.608 -3.312,-7.776 -3.312,-3.168 -7.92,-3.168 h -27.648 v 31.536 h -11.088 v -96.192 h 11.088 v 53.712 h 17.568 l 21.888,-27.792 z"
         style="font-style:normal;font-variant:normal;font-weight:bold;font-stretch:normal;font-size:144px;font-family:'Hall Fetica';-inkscape-font-specification:'Hall Fetica Bold';letter-spacing:-11px;fill:#e64f1f;fill-opacity:1;stroke:#000000;stroke-width:1;stroke-linecap:butt;stroke-linejoin:bevel;stroke-miterlimit:4;stroke-dasharray:none;stroke-dashoffset:0;stroke-opacity:1"
         id="path7689-7-16-7" />
      <path
         inkscape:connector-curvature="0"
         d="m 255.87815,1649.2721 h -11.088 v -12.672 h 11.088 z m 0,83.52 h -11.088 v -70.272 h 11.088 z"
         style="font-style:normal;font-variant:normal;font-weight:bold;font-stretch:normal;font-size:144px;font-family:'Hall Fetica';-inkscape-font-specification:'Hall Fetica Bold';letter-spacing:-11px;fill:#e64f1f;fill-opacity:1;stroke:#000000;stroke-width:1;stroke-linecap:butt;stroke-linejoin:bevel;stroke-miterlimit:4;stroke-dasharray:none;stroke-dashoffset:0;stroke-opacity:1"
         id="path7691-8-4-6" />
      <path
         inkscape:connector-curvature="0"
         d="m 314.39865,1693.7681 h -11.088 v -9.072 q 0,-4.464 -3.312,-7.632 -3.312,-3.312 -7.776,-3.312 h -22.032 v 58.896 h -11.088 v -69.84 h 33.12 q 9.216,0 15.696,6.336 6.48,6.336 6.48,15.552 z"
         style="font-style:normal;font-variant:normal;font-weight:bold;font-stretch:normal;font-size:144px;font-family:'Hall Fetica';-inkscape-font-specification:'Hall Fetica Bold';letter-spacing:-11px;fill:#e64f1f;fill-opacity:1;stroke:#000000;stroke-width:1;stroke-linecap:butt;stroke-linejoin:bevel;stroke-miterlimit:4;stroke-dasharray:none;stroke-dashoffset:0;stroke-opacity:1"
         id="path7693-7-2-8" />
      <path
         inkscape:connector-curvature="0"
         d="m 362.40265,1732.6481 h -17.568 q -9.504,0 -15.984,-6.192 -6.336,-6.192 -6.336,-15.696 v -37.584 h -6.912 v -11.232 h 6.912 v -25.056 h 11.232 v 25.056 h 23.328 v 11.232 h -23.328 v 37.584 q 0,4.608 3.168,7.776 3.312,3.168 7.92,3.168 h 17.568 z"
         style="font-style:normal;font-variant:normal;font-weight:bold;font-stretch:normal;font-size:144px;font-family:'Hall Fetica';-inkscape-font-specification:'Hall Fetica Bold';letter-spacing:-11px;fill:#e64f1f;fill-opacity:1;stroke:#000000;stroke-width:1;stroke-linecap:butt;stroke-linejoin:bevel;stroke-miterlimit:4;stroke-dasharray:none;stroke-dashoffset:0;stroke-opacity:1"
         id="path7695-1-7-8" />
      <path
         d="m 422.05265,1714.0721 c 0,6.048 -2.29,10.368 -6.802,13.824 -4.032,3.168 -9.16801,4.7389 -15.408,4.752 h -37.50629 v -10.944 h 37.50629 c 7.392,0 11.122,-2.256 11.122,-7.632 v -2.592 c 0,-5.376 -3.696,-8.064 -11.088,-8.064 h -16.848 c -6.24,0 -11.376,-1.584 -15.408,-4.752 -4.512,-3.456 -6.768,-8.208 -6.768,-14.256 v -2.592 c 0,-6.048 2.256,-10.8 6.768,-14.256 4.032,-3.168 9.168,-4.752 15.408,-4.752 h 37.584 v 10.944 h -37.584 c -7.392,0 -11.088,2.688 -11.088,8.064 v 2.592 c 0,5.376 3.696,8.064 11.088,8.064 h 16.848 c 6.24,0 11.376,1.584 15.408,4.752 4.512,3.456 6.768,8.208 6.768,14.256 z"
         style="font-style:normal;font-variant:normal;font-weight:bold;font-stretch:normal;font-size:144px;font-family:'Hall Fetica';-inkscape-font-specification:'Hall Fetica Bold';letter-spacing:-11px;fill:#e64f1f;fill-opacity:1;stroke:#000000;stroke-width:1;stroke-linecap:butt;stroke-linejoin:bevel;stroke-miterlimit:4;stroke-dasharray:none;stroke-dashoffset:0;stroke-opacity:1"
         id="path7697-2-0-2"
         inkscape:connector-curvature="0"
         sodipodi:nodetypes="scsccssssscsscsccssssscss" />
      <path
         inkscape:connector-curvature="0"
         d="m 475.37815,1732.7921 h -11.088 v -96.192 h 11.088 z"
         style="font-style:normal;font-variant:normal;font-weight:bold;font-stretch:normal;font-size:144px;font-family:'Hall Fetica';-inkscape-font-specification:'Hall Fetica Bold';letter-spacing:-11px;fill:#e64f1f;fill-opacity:1;stroke:#000000;stroke-width:1;stroke-linecap:butt;stroke-linejoin:bevel;stroke-miterlimit:4;stroke-dasharray:none;stroke-dashoffset:0;stroke-opacity:1"
         id="path7699-6-7-2" />
      <path
         inkscape:connector-curvature="0"
         d="m 538.79465,1732.7921 h -37.872 q -9.504,0 -15.984,-6.192 -6.336,-6.192 -6.336,-15.696 v -1.152 q 0,-9.504 6.336,-15.696 6.48,-6.192 15.984,-6.192 h 26.784 l -0.144,-1.296 v -1.872 q 0,-4.608 -3.312,-7.776 -3.168,-3.168 -7.776,-3.168 h -34.848 v -10.944 h 34.848 q 9.504,0 15.84,6.048 6.48,5.904 6.48,15.264 z m -11.088,-10.944 -0.144,-23.04 h -26.64 q -4.608,0 -7.92,3.168 -3.312,3.168 -3.312,7.776 v 1.152 q 0,4.608 3.312,7.776 3.312,3.168 7.92,3.168 z"
         style="font-style:normal;font-variant:normal;font-weight:bold;font-stretch:normal;font-size:144px;font-family:'Hall Fetica';-inkscape-font-specification:'Hall Fetica Bold';letter-spacing:-11px;fill:#e64f1f;fill-opacity:1;stroke:#000000;stroke-width:1;stroke-linecap:butt;stroke-linejoin:bevel;stroke-miterlimit:4;stroke-dasharray:none;stroke-dashoffset:0;stroke-opacity:1"
         id="path7701-1-1-4" />
      <path
         inkscape:connector-curvature="0"
         d="m 602.1819,1710.9041 q 0,9.216 -6.48,15.552 -6.48,6.336 -15.696,6.336 h -37.872 v -96.192 h 11.088 v 26.784 h 26.784 q 9.216,0 15.696,6.336 6.48,6.336 6.48,15.552 z m -11.088,0 v -25.632 q 0,-4.608 -3.312,-7.776 -3.168,-3.168 -7.776,-3.168 h -26.784 v 47.52 h 26.784 q 4.608,0 7.776,-3.168 3.312,-3.168 3.312,-7.776 z"
         style="font-style:normal;font-variant:normal;font-weight:bold;font-stretch:normal;font-size:144px;font-family:'Hall Fetica';-inkscape-font-specification:'Hall Fetica Bold';letter-spacing:-11px;fill:#e64f1f;fill-opacity:1;stroke:#000000;stroke-width:1;stroke-linecap:butt;stroke-linejoin:bevel;stroke-miterlimit:4;stroke-dasharray:none;stroke-dashoffset:0;stroke-opacity:1"
         id="path7703-8-0-4" />
      <path
         inkscape:connector-curvature="0"
         d="m 666.5839,1714.0721 q 0,9.072 -6.768,14.256 -6.048,4.752 -15.408,4.752 h -37.44 v -10.944 h 37.44 q 11.088,0 11.088,-8.064 v -2.592 q 0,-8.064 -11.088,-8.064 h -16.848 q -9.36,0 -15.408,-4.752 -6.768,-5.184 -6.768,-14.256 v -2.592 q 0,-9.072 6.768,-14.256 6.048,-4.752 15.408,-4.752 h 37.584 v 10.944 h -37.584 q -11.088,0 -11.088,8.064 v 2.592 q 0,8.064 11.088,8.064 h 16.848 q 9.36,0 15.408,4.752 6.768,5.184 6.768,14.256 z"
         style="font-style:normal;font-variant:normal;font-weight:bold;font-stretch:normal;font-size:144px;font-family:'Hall Fetica';-inkscape-font-specification:'Hall Fetica Bold';letter-spacing:-11px;fill:#e64f1f;fill-opacity:1;stroke:#000000;stroke-width:1;stroke-linecap:butt;stroke-linejoin:bevel;stroke-miterlimit:4;stroke-dasharray:none;stroke-dashoffset:0;stroke-opacity:1"
         id="path7705-5-4-7" />
    </g>
    <g
       id="g6095"
       transform="matrix(0.18741716,0,0,0.18741716,388.90874,-476.44613)"
       inkscape:export-filename="/home/outskirts/clients/outskirtslabs/branding/raster/logo-flask-color-35.png"
       inkscape:export-xdpi="25.1703"
       inkscape:export-ydpi="25.1703">
      <path
         inkscape:export-ydpi="43.299461"
         inkscape:export-xdpi="43.299461"
         inkscape:export-filename="/home/outskirts/clients/outskirtslabs/branding/raster/logo-flask-color.png"
         sodipodi:nodetypes="cssscsccssssscccsssscccscsssscccsscsssssscssssscsssssccscsssssscscsscsssscsscccssssscssscccssccsssssssscc"
         id="path3109-6-7-3-4-2"
         d="m -122.48015,3102.2935 c -7.58455,-1.39 -10.89037,-2.3828 -15.81865,-4.751 -5.40472,-2.5971 -9.53851,-5.5689 -14.15615,-10.1767 -5.82203,-5.8096 -9.22058,-11.0468 -12.15015,-18.7236 -2.24781,-5.8902 -2.80639,-9.4287 -2.80385,-17.7619 0.002,-5.9602 0.1297,-7.949 0.65715,-10.2196 0.3602,-1.5505 0.67635,-3.1364 0.70255,-3.524 0.0262,-0.3876 0.1432,-0.7841 0.25998,-0.881 0.11679,-0.097 0.49448,-1.0484 0.83932,-2.1144 0.60912,-1.883 4.30163,-9.8656 4.72729,-10.2196 0.11652,-0.097 0.80246,-1.0484 1.52429,-2.1144 1.34417,-1.9851 1.75732,-2.5014 4.93951,-6.1731 3.05045,-3.5196 8.93482,-7.955 14.09919,-10.6275 l 3.0835,-1.5956 v -17.1459 -17.1459 l -1.71719,-0.7878 c -2.11206,-0.9689 -3.69592,-2.5332 -4.90712,-4.8465 -0.79125,-1.5112 -0.92467,-2.2134 -0.93743,-4.9336 -0.0181,-3.8632 0.78079,-5.7282 3.52691,-8.2333 2.95627,-2.6968 3.83384,-2.8711 14.44929,-2.8691 h 9.18105 l -0.0137,1.8502 c -0.008,1.0175 0.10419,2.2787 0.24824,2.8027 l 0.26191,0.9527 -9.31618,0.1045 c -8.77128,0.098 -9.37305,0.1471 -10.28852,0.8311 -2.51166,1.8768 -3.15309,4.2768 -1.83079,6.8501 0.97117,1.8899 2.70802,2.8752 5.47229,3.1044 l 1.86201,0.1544 v 21.5789 21.5787 l -3.15875,1.3093 c -5.82403,2.4141 -11.4936,6.3562 -15.87235,11.0363 -8.00564,8.5566 -12.32686,19.5323 -12.33112,31.3203 -6.5e-4,2.1563 0.0932,4.3936 0.20885,4.9718 0.2083,1.0415 0.237,1.0532 3.0835,1.2585 2.82755,0.2039 6.82129,1.3034 10.05004,2.7668 1.71948,0.7793 3.46459,1.5863 11.50871,5.3219 5.08162,2.3598 7.54706,3.1631 8.1202,2.8089 0.18745,-0.1158 0.32398,1.0776 0.32398,2.8319 v 3.0322 l -1.3215,-0.2401 c -3.0462,-0.5534 -5.25927,-1.6526 -11.71217,-5.1706 -1.16292,-0.634 -3.06588,-1.6664 -4.2288,-2.2941 -1.16293,-0.6277 -3.38305,-1.826 -4.93362,-2.6629 -3.50553,-1.8921 -5.87982,-2.8291 -8.26893,-3.2634 l -1.8514,-0.3365 0.23054,1.4418 c 0.31872,1.9932 1.7973,6.306 3.10193,9.048 3.88421,8.1636 10.843,15.7513 18.54284,20.2187 4.00876,2.3259 4.39692,2.4215 6.692,1.6483 1.10153,-0.371 3.57227,-0.9953 5.49055,-1.3871 1.91827,-0.3919 2.64338,-1.0902 3.77765,-1.1695 l 18.18899,0.9613 c 0.91833,0.1248 3.159,0.6122 4.97927,1.0831 l 3.3096,0.8562 2.32882,-1.2755 c 3.65822,-2.0037 6.65373,-4.2515 10.02137,-7.52 2.99262,-2.9045 6.93208,-7.6419 6.93208,-8.3362 0,-0.1839 -1.86331,-0.6951 -4.14071,-1.1362 -2.27739,-0.441 -5.96438,-1.1899 -8.19331,-1.6643 -5.00344,-1.0648 -8.80363,-1.1179 -12.35786,-0.1727 -1.44054,0.3831 -2.73811,0.7002 -2.88347,0.7048 -0.14537,0 -0.2643,-0.9902 -0.2643,-2.2106 v -2.2189 l 2.47334,-0.4241 c 5.93794,-1.0182 9.394,-0.4289 20.88702,3.5621 l 5.56413,1.9321 1.22727,-2.4371 c 3.82616,-7.5978 5.54234,-16.4588 4.73955,-24.4713 -0.81575,-8.1418 -3.19479,-14.8689 -7.71907,-21.8267 -2.05206,-3.1559 -8.99769,-10.1201 -12.19521,-12.2279 -3.07206,-2.0251 -7.25167,-4.1834 -7.63839,-3.9444 -0.15985,0.099 -0.29062,0.029 -0.29062,-0.1554 0,-0.1842 -0.39646,-0.4345 -0.88101,-0.5561 l -0.881,-0.2211 v -21.9517 -21.9517 l 1.76254,-0.4517 c 2.57552,-0.6601 4.22876,-2.6623 4.22695,-5.1191 -0.002,-2.3719 -0.96276,-3.9198 -2.99065,-4.8168 -1.4523,-0.6424 -1.53941,-0.7552 -1.224,-1.5848 0.18676,-0.4912 0.33956,-1.7676 0.33956,-2.8364 v -1.9433 l 1.1453,0.2477 c 5.69057,1.2303 9.51742,7.1554 8.37427,12.966 -0.53276,2.7079 -2.35438,5.5204 -4.42498,6.8318 l -1.54485,0.9784 -0.006,17.7962 -0.006,17.7962 2.77638,1.478 c 4.11804,2.1922 8.53976,5.4901 12.15069,9.0624 1.76437,1.7455 3.30045,3.1494 3.41351,3.1199 0.11306,-0.029 0.20719,0.1357 0.20916,0.3672 0.003,0.3676 3.08714,5.0589 3.63587,5.5307 0.69141,0.5946 4.29589,8.502 5.22069,11.4531 1.86003,5.9353 2.32804,9.1675 2.32173,16.0342 -0.006,6.5466 -0.38086,9.2012 -2.13969,15.1532 -0.77454,2.6211 -4.81348,11.421 -5.353,11.9816 -0.0273,0.028 -2.51452,3.4953 -2.51452,3.6879 0,0.3068 -3.1038,3.6701 -5.86509,6.3555 -6.68166,6.4981 -15.65988,11.2775 -25.14617,13.386 -2.56863,0.5709 -14.81338,1.0579 -16.91521,0.6727 z"
         style="fill:#201e1d;fill-opacity:1"
         inkscape:connector-curvature="0" />
      <path
         inkscape:export-ydpi="43.299461"
         inkscape:export-xdpi="43.299461"
         inkscape:export-filename="/home/outskirts/clients/outskirtslabs/branding/raster/logo-flask-color.png"
         id="path3107-4-7-4-5-7"
         d="m -81.15659,3062.6896 c -2.78413,-0.9185 -4.27988,-3.0123 -4.29061,-6.0063 -0.0131,-3.6511 2.51399,-6.1532 6.22067,-6.1591 1.83142,0 2.87582,0.3907 4.30943,1.6242 1.3937,1.1992 1.9617,2.8479 1.79307,5.2047 -0.14354,2.0061 -0.96407,3.4533 -2.61639,4.6146 -0.85079,0.5979 -1.34714,0.7391 -2.90432,0.8261 -1.033,0.058 -2.16332,0.011 -2.51185,-0.1042 z"
         style="fill:#e64f1f;fill-opacity:1"
         inkscape:connector-curvature="0" />
      <path
         inkscape:export-ydpi="43.299461"
         inkscape:export-xdpi="43.299461"
         inkscape:export-filename="/home/outskirts/clients/outskirtslabs/branding/raster/logo-flask-color.png"
         sodipodi:nodetypes="ccsscsssccsccsccssscsscc"
         id="path5906-70-7-2-3"
         d="m -106.70668,3090.9775 v -24.1523 l 13.27178,0.328 c 3.35095,0.083 6.11209,-1.6107 6.11209,-3.6109 v -0.3281 -27.0276 c 0,-2.0528 -2.72481,-3.7204 -6.0135,-3.7204 -3.29264,0 -5.91492,1.6676 -5.91492,3.7204 v 23.7449 h -7.25844 v -44.2373 c 0,-3.6679 -4.26662,-6.5654 -9.56244,-6.5654 h 1.7e-4 c -5.28794,0 -9.56243,2.8975 -9.56243,6.5654 v 26.2616 h -6.10133 v -10.1764 c 0,-1.3962 -1.80208,-2.5167 -4.04186,-2.5167 -2.2319,0 -4.04185,1.1205 -4.04185,2.5167 v 12.5837 0.2189 c 0,1.44 2.05839,2.6262 4.53476,2.6262 h 9.65028 v 43.7693"
         style="fill:#201e1d;fill-opacity:1;fill-rule:nonzero;stroke:none"
         inkscape:connector-curvature="0" />
      <path
         inkscape:export-ydpi="43.299461"
         inkscape:export-xdpi="43.299461"
         inkscape:export-filename="/home/outskirts/clients/outskirtslabs/branding/raster/logo-flask-color.png"
         id="path3105-8-0-1-3-6"
         d="m -117.38684,2979.6019 c -3.29232,-1.2497 -5.03031,-3.9504 -5.03031,-7.8166 0,-4.9007 3.21807,-8.1016 8.10507,-8.0619 3.76104,0.031 5.86662,1.2346 7.54212,4.3131 0.90846,1.6691 0.98273,2.0582 0.77672,4.0691 -0.38014,3.7103 -1.566,5.6953 -4.26609,7.141 -1.68842,0.9041 -5.21836,1.08 -7.12751,0.3553 z"
         style="fill:#e64f1f;fill-opacity:1"
         inkscape:connector-curvature="0" />
      <path
         inkscape:export-ydpi="43.299461"
         inkscape:export-xdpi="43.299461"
         inkscape:export-filename="/home/outskirts/clients/outskirtslabs/branding/raster/logo-flask-color.png"
         id="path3103-0-3-5-4-2"
         d="m -110.45467,2954.3694 c -2.70587,-1.4291 -3.65251,-3.8694 -2.96348,-7.6395 0.28621,-1.5661 1.89531,-3.342 3.62335,-3.9991 1.15765,-0.4401 3.71135,-0.4167 4.93668,0.045 4.72756,1.7824 5.35868,8.8911 1.01533,11.4364 -1.88445,1.1044 -4.69181,1.171 -6.61188,0.157 z"
         style="fill:#e64f1f;fill-opacity:1"
         inkscape:connector-curvature="0" />
      <path
         inkscape:export-ydpi="43.299461"
         inkscape:export-xdpi="43.299461"
         inkscape:export-filename="/home/outskirts/clients/outskirtslabs/branding/raster/logo-flask-color.png"
         id="path3099-6-7-5-0-3"
         d="m -121.26965,2935.3896 c -3.36905,-1.6609 -3.4197,-7.4992 -0.0797,-9.1892 0.47874,-0.2422 1.75585,-0.4428 2.83802,-0.4456 1.72307,0 2.13478,0.1393 3.31297,1.1578 1.1959,1.0337 1.36344,1.3807 1.50792,3.1229 0.11685,1.4091 -0.0108,2.3254 -0.45416,3.2596 -1.11573,2.3512 -4.55402,3.362 -7.12503,2.0945 z"
         style="fill:#e64f1f;fill-opacity:1"
         inkscape:connector-curvature="0" />
    </g>
  </g>
</svg>
